<?xml version="1.0" encoding="UTF-8"?>
<svg width="189px" height="53px" viewBox="0 0 189 53" version="1.1" xmlns="http://www.w3.org/2000/svg" xmlns:xlink="http://www.w3.org/1999/xlink">
    <!-- Generator: Sketch 53.2 (72643) - https://sketchapp.com -->
    <title>Logo (Reversed)</title>
    <desc>Created with Sketch.</desc>
    <g id="Logo-(Reversed)" stroke="none" stroke-width="1" fill="none" fill-rule="evenodd">
        <g id="Logo">
            <g id="Arrows" transform="translate(178.750374, 41.593612)" fill="#FFFFFF">
                <path d="M9.23140866,2.65701058 C9.34773519,2.74550081 9.41582877,2.88266067 9.41582877,3.0280953 C9.41582877,3.17352994 9.34773519,3.3106898 9.23140866,3.39918003 C8.43130911,4.01023331 6.82921852,5.23273527 5.87685416,5.95904237 C5.73404679,6.06805481 5.54206073,6.08688251 5.38033848,6.00759903 C5.21861623,5.92831555 5.11647586,5.76467452 5.11647586,5.58549122 C5.11647586,4.24352745 5.11647586,1.81263491 5.11647586,0.470689975 C5.11647586,0.291544327 5.21861623,0.127837399 5.38033848,0.0485727458 C5.54206073,-0.0306919078 5.73404679,-0.0118641991 5.87685416,0.0971482343 C6.82921852,0.823427098 8.43130911,2.04595729 9.23140866,2.65701058 Z" id="Right"></path>
                <path d="M4.1149328,2.65701058 C4.23125933,2.74550081 4.29935291,2.88266067 4.29935291,3.0280953 C4.29935291,3.17352994 4.23125933,3.3106898 4.1149328,3.39918003 C3.31483325,4.01023331 1.71274266,5.23273527 0.761324042,5.95904237 C0.617570931,6.06805481 0.425584868,6.08688251 0.263862618,6.00759903 C0.102140368,5.92831555 0,5.76467452 0,5.58549122 C0,4.24352745 0,1.81263491 0,0.470689975 C0,0.291544327 0.102140368,0.127837399 0.263862618,0.0485727458 C0.425584868,-0.0306919078 0.617570931,-0.0118641991 0.761324042,0.0971482343 C1.71274266,0.823427098 3.31483325,2.04595729 4.1149328,2.65701058 Z" id="Left"></path>
            </g>
            <polygon id="Rule" fill="#FFFFFF" fill-rule="nonzero" points="57.6954062 45.5275687 57.6954062 44.5275687 103.090842 44.5275687 103.090842 45.5275687"></polygon>
            <g id="Name" transform="translate(58.022350, 9.572404)" fill="#FFFFFF" fill-rule="nonzero">
                <path d="M51.0235699,38.6097703 C49.8837858,38.6097703 48.9245759,38.1829234 48.1459116,37.3292169 L48.1459116,43.209653 L47.1810497,43.209653 L47.1810497,31.1286424 L48.247476,32.1227562 C49.0035704,31.3364475 49.9289257,30.9432991 51.0235699,30.9432991 C52.095644,30.9432991 53.0040721,31.3195983 53.7488815,32.072208 C54.4936909,32.8135848 54.86609,33.7122098 54.86609,34.76811 C54.86609,35.8240102 54.4936909,36.7282516 53.7488815,37.4808613 C53.0040721,38.2334711 52.095644,38.6097703 51.0235699,38.6097703 Z M51.0235699,37.6325058 C51.8360892,37.6325058 52.5131785,37.3573019 53.0548581,36.8068858 C53.6078226,36.2564698 53.8843007,35.5768846 53.8843007,34.76811 C53.8843007,33.9705683 53.6078226,33.2965996 53.0548581,32.7461835 C52.5131785,32.1957675 51.8360892,31.9205636 51.0235699,31.9205636 C50.2223355,31.9205636 49.5396038,32.2013839 48.9753543,32.7630329 C48.4223897,33.313449 48.1459116,33.9818013 48.1459116,34.76811 C48.1459116,35.5768846 48.4223897,36.2564698 48.9753543,36.8068858 C49.5283188,37.3573019 50.2110505,37.6325058 51.0235699,37.6325058 Z M59.485578,31.111793 L59.0454655,31.9879611 C58.9100456,31.9430292 58.7351309,31.9205636 58.5207161,31.9205636 C58.2498763,31.9205636 57.998789,31.9711112 57.7674467,32.072208 C57.5361044,32.1733049 57.33862,32.3080986 57.1749876,32.4765933 C57.0113553,32.645088 56.8815798,32.8416623 56.7856574,33.0663219 C56.689735,33.2909815 56.6417745,33.5268706 56.6417745,33.7739962 L56.6417745,38.3907282 L55.6769126,38.3907282 L55.6769126,31.1286424 L56.4894279,31.7857685 C57.0311074,31.2241194 57.7081967,30.9432991 58.5207161,30.9432991 C58.8931208,30.9432991 59.2147382,30.9994632 59.485578,31.111793 Z M63.8680823,30.9432991 C64.9401564,30.9432991 65.8485845,31.3195983 66.5933939,32.072208 C67.3494883,32.8135848 67.7275299,33.7122098 67.7275299,34.76811 C67.7275299,35.8240102 67.3494883,36.7282516 66.5933939,37.4808613 C65.8485845,38.2334711 64.9401564,38.6097703 63.8680823,38.6097703 C62.8185781,38.6097703 61.9157924,38.2334711 61.159698,37.4808613 C60.4036036,36.7282516 60.0255621,35.8240102 60.0255621,34.76811 C60.0255621,33.7122098 60.4036036,32.8135848 61.159698,32.072208 C61.9157924,31.3195983 62.8185781,30.9432991 63.8680823,30.9432991 Z M63.8680823,31.9205636 C63.0668479,31.9205636 62.3897586,32.1957675 61.8367941,32.7461835 C61.2838295,33.2965996 61.0073514,33.9705683 61.0073514,34.76811 C61.0073514,35.5768846 61.2838295,36.2564698 61.8367941,36.8068858 C62.3897586,37.3573019 63.0668479,37.6325058 63.8680823,37.6325058 C64.6693166,37.6325058 65.3464059,37.3573019 65.8993705,36.8068858 C66.46362,36.2452368 66.7457406,35.5656516 66.7457406,34.76811 C66.7457406,33.9930343 66.46362,33.324682 65.8993705,32.7630329 C65.3351209,32.2013839 64.6580316,31.9205636 63.8680823,31.9205636 Z M72.0964922,30.9432991 C73.2362763,30.9432991 74.1954861,31.370146 74.9741505,32.2238525 L74.9741505,26.326567 L75.9559398,26.326567 L75.9559398,38.3907282 L74.8725861,37.4134638 C74.1052067,38.2110054 73.1798514,38.6097703 72.0964922,38.6097703 C71.0469881,38.6097703 70.1442023,38.2334711 69.388108,37.4808613 C68.6320136,36.7282516 68.253972,35.8240102 68.253972,34.76811 C68.253972,33.7122098 68.6320136,32.8135848 69.388108,32.072208 C70.1442023,31.3195983 71.0469881,30.9432991 72.0964922,30.9432991 Z M72.0964922,31.9205636 C71.2952579,31.9205636 70.6181686,32.1957675 70.065204,32.7461835 C69.5122395,33.2965996 69.2357613,33.9705683 69.2357613,34.76811 C69.2357613,35.5768846 69.5122395,36.2564698 70.065204,36.8068858 C70.6181686,37.3573019 71.2952579,37.6325058 72.0964922,37.6325058 C72.8977266,37.6325058 73.5748159,37.3573019 74.1277804,36.8068858 C74.69203,36.2452368 74.9741505,35.5656516 74.9741505,34.76811 C74.9741505,33.9930343 74.69203,33.324682 74.1277804,32.7630329 C73.5635309,32.2013839 72.8864416,31.9205636 72.0964922,31.9205636 Z M82.8267722,31.1286424 L82.8267722,38.3907282 L81.9804021,37.7167528 C81.4274375,38.3008678 80.7390634,38.5929209 79.9152591,38.5929209 C79.0914547,38.5929209 78.4030806,38.317717 77.8501161,37.7673009 C77.2971515,37.2168849 77.0206734,36.5260669 77.0206734,35.6948263 L77.0206734,31.1286424 L77.9855353,31.1286424 L77.9855353,35.6948263 C77.9855353,36.2227764 78.1773772,36.6777053 78.5610669,37.0596267 C78.9447566,37.430315 79.3961495,37.6156564 79.9152591,37.6156564 C80.4907936,37.6156564 80.9534713,37.4246986 81.303306,37.0427773 C81.6644257,36.6496229 81.8449829,36.2003104 81.8449829,35.6948263 L81.8449829,31.1286424 L82.8267722,31.1286424 Z M90.4271755,32.3249489 L89.6654424,32.9315268 C89.0673379,32.2575479 88.3338245,31.9205636 87.4648802,31.9205636 C86.6636459,31.9205636 85.9865566,32.1957675 85.433592,32.7461835 C84.8806275,33.2965996 84.6041493,33.9705683 84.6041493,34.76811 C84.6041493,35.5768846 84.8806275,36.2564698 85.433592,36.8068858 C85.9865566,37.3573019 86.6636459,37.6325058 87.4648802,37.6325058 C88.3225395,37.6325058 89.0334833,37.3123707 89.5977328,36.6720908 L90.3933207,37.2786687 C90.020916,37.705522 89.5864504,38.0340817 89.0899108,38.2643578 C88.5933712,38.494634 88.0516998,38.6097703 87.4648802,38.6097703 C86.4153761,38.6097703 85.5125903,38.2334711 84.756496,37.4808613 C84.0004016,36.7282516 83.62236,35.8240102 83.62236,34.76811 C83.62236,33.7122098 84.0004016,32.8135848 84.756496,32.072208 C85.5125903,31.3195983 86.4153761,30.9432991 87.4648802,30.9432991 C88.0742697,30.9432991 88.627226,31.0612436 89.1237656,31.2971362 C89.6203052,31.5330288 90.0547708,31.8756296 90.4271755,32.3249489 Z M92.287497,32.1059068 L90.9671596,32.1059068 L90.9671596,31.1286424 L92.287497,31.1286424 L92.287497,29.0898665 L93.2692863,28.6180837 L93.2692863,31.1286424 L94.5557688,31.1286424 L94.5557688,32.1059068 L93.2692863,32.1059068 L93.2692863,38.3907282 L92.287497,38.3907282 L92.287497,32.1059068 Z M95.3682841,31.1286424 L96.333146,31.1286424 L96.333146,38.3907282 L95.3682841,38.3907282 L95.3682841,31.1286424 Z M95.3682841,28.2979453 L96.333146,28.2979453 L96.333146,29.3594567 L95.3682841,29.3594567 L95.3682841,28.2979453 Z M100.986489,30.9432991 C102.058563,30.9432991 102.966991,31.3195983 103.7118,32.072208 C104.467895,32.8135848 104.845936,33.7122098 104.845936,34.76811 C104.845936,35.8240102 104.467895,36.7282516 103.7118,37.4808613 C102.966991,38.2334711 102.058563,38.6097703 100.986489,38.6097703 C99.9369845,38.6097703 99.0341988,38.2334711 98.2781044,37.4808613 C97.52201,36.7282516 97.1439685,35.8240102 97.1439685,34.76811 C97.1439685,33.7122098 97.52201,32.8135848 98.2781044,32.072208 C99.0341988,31.3195983 99.9369845,30.9432991 100.986489,30.9432991 Z M100.986489,31.9205636 C100.185254,31.9205636 99.508165,32.1957675 98.9552005,32.7461835 C98.4022359,33.2965996 98.1257578,33.9705683 98.1257578,34.76811 C98.1257578,35.5768846 98.4022359,36.2564698 98.9552005,36.8068858 C99.508165,37.3573019 100.185254,37.6325058 100.986489,37.6325058 C101.787723,37.6325058 102.464812,37.3573019 103.017777,36.8068858 C103.582026,36.2452368 103.864147,35.5656516 103.864147,34.76811 C103.864147,33.9930343 103.582026,33.324682 103.017777,32.7630329 C102.453527,32.2013839 101.776438,31.9205636 100.986489,31.9205636 Z M105.643217,38.3907282 L105.643217,31.1286424 L106.47266,31.8026178 C107.025624,31.2297358 107.713998,30.9432991 108.537803,30.9432991 C109.350322,30.9432991 110.038696,31.2241194 110.602946,31.7857685 C111.167195,32.3474175 111.449316,33.0270027 111.449316,33.8245443 L111.449316,38.3907282 L110.467526,38.3907282 L110.467526,33.8245443 C110.467526,33.5549528 110.416745,33.3022145 110.31518,33.0663219 C110.213615,32.8304293 110.078197,32.6282387 109.908922,32.4597439 C109.739647,32.2912492 109.53652,32.1592637 109.299536,32.0637833 C109.062551,31.968303 108.808642,31.9205636 108.537803,31.9205636 C108.007408,31.9205636 107.550373,32.105905 107.166683,32.4765933 C106.794278,32.8472817 106.608079,33.2965942 106.608079,33.8245443 L106.608079,38.3907282 L105.643217,38.3907282 Z M113.091274,36.8405846 C113.328258,37.3236028 113.723227,37.5651083 114.276192,37.5651083 C114.637311,37.5651083 114.944823,37.4387391 115.198735,37.1859971 C115.452647,36.933255 115.579602,36.6271608 115.579602,36.2677055 C115.579602,35.964415 115.492144,35.6976357 115.317227,35.4673596 C115.14231,35.2370835 114.925077,35.0882487 114.665522,35.0208508 L113.802225,34.76811 C113.38468,34.6445472 113.043314,34.4142745 112.778117,34.0772851 C112.512919,33.7402957 112.380323,33.3583801 112.380323,32.9315268 C112.380323,32.3923437 112.566522,31.9374148 112.938927,31.5667264 C113.322617,31.1960381 113.779652,31.0106966 114.310047,31.0106966 C114.693736,31.0106966 115.046387,31.1174084 115.368009,31.330835 C115.689631,31.5442616 115.923791,31.8306984 116.070496,32.1901538 L115.173344,32.5608403 C115.037924,32.1789189 114.750161,31.9879611 114.310047,31.9879611 C114.039207,31.9879611 113.81351,32.08344 113.632951,32.2744007 C113.452391,32.4653614 113.362112,32.6844012 113.362112,32.9315268 C113.362112,33.403312 113.593451,33.7009815 114.056136,33.8245443 L114.919433,34.0772851 C115.404688,34.2120809 115.799656,34.476052 116.104351,34.8692063 C116.409046,35.2623607 116.561391,35.7285224 116.561391,36.2677055 C116.561391,36.5934619 116.502146,36.8939396 116.383653,37.1691477 C116.265161,37.4443557 116.104352,37.683053 115.901222,37.8852466 C115.698092,38.0874403 115.455469,38.2446997 115.173344,38.3570295 C114.891219,38.4693593 114.592172,38.5255233 114.276192,38.5255233 C113.847362,38.5255233 113.455215,38.4160034 113.099737,38.1969603 C112.74426,37.9779172 112.459318,37.6830558 112.244904,37.3123675 L113.091274,36.8405846 Z" id="productions"></path>
                <path d="M21.6821304,18.9915098 C20.5888447,20.4851821 19.2008214,21.6747676 17.5180189,22.560302 C15.8352164,23.4458363 13.9863051,23.8885968 11.9712295,23.8885968 C10.3420194,23.9312732 8.80393954,23.6325432 7.35694375,22.9923979 C5.90994797,22.3522526 4.63982627,21.4827349 3.54654057,20.3838188 C2.45325486,19.2849027 1.59042958,18.0099658 0.958038825,16.5589698 C0.325648074,15.1079738 0.020175768,13.5716481 0.0416127427,11.9499467 C-0.00126120657,10.3282453 0.298851936,8.79191963 0.941961175,7.34092362 C1.58507041,5.88992762 2.45861403,4.61499069 3.56261822,3.5160746 C4.66662241,2.41715851 5.94746243,1.55297532 7.4051767,0.923499112 C8.86289098,0.294022904 10.3848933,0.000627376909 11.9712295,0.04330373 C13.9863051,0.04330373 15.8298572,0.475395324 17.5019413,1.33959147 C19.1740253,2.20378762 20.5566894,3.40404205 21.6499751,4.94039076 L20.1708313,5.99662522 C19.2919153,4.75901098 18.1236177,3.76680066 16.6659034,3.01996448 C15.2081892,2.2731283 13.6433135,1.89971581 11.9712295,1.89971581 C10.6207001,1.85703946 9.33450088,2.10775927 8.11259333,2.65188277 C6.89068578,3.19600627 5.81349396,3.93216232 4.88098556,4.860373 C3.94847717,5.78858368 3.20891264,6.8714799 2.66226979,8.10909414 C2.11562693,9.34670838 1.86374626,10.6269798 1.90662021,11.9499467 C1.86374626,13.31559 2.11562693,14.6171993 2.66226979,15.8548135 C3.20891264,17.0924277 3.94847717,18.175324 4.88098556,19.1035346 C5.81349396,20.0317453 6.89068578,20.7625669 8.11259333,21.2960213 C9.33450088,21.8294757 10.6207001,22.0748611 11.9712295,22.0321847 C13.6433135,22.0321847 15.1974708,21.6641067 16.6337481,20.9279396 C18.0700254,20.1917725 19.2490414,19.1835588 20.1708313,17.9032682 L21.6821304,18.9915098 Z M34.6085615,0.04330373 C36.2377715,0.0219655535 37.7812106,0.326030008 39.2389248,0.955506217 C40.6966391,1.58498243 41.9774791,2.44383115 43.0814833,3.53207815 C44.1854875,4.62032516 45.053672,5.88992762 45.6860627,7.34092362 C46.3184535,8.79191963 46.6239258,10.3282453 46.6024888,11.9499467 C46.6239258,13.5716481 46.3184535,15.1079738 45.6860627,16.5589698 C45.053672,18.0099658 44.1854875,19.2849027 43.0814833,20.3838188 C41.9774791,21.4827349 40.6966391,22.3522526 39.2389248,22.9923979 C37.7812106,23.6325432 36.2377715,23.9312732 34.6085615,23.8885968 C32.9793514,23.9312732 31.4412715,23.6325432 29.9942758,22.9923979 C28.54728,22.3522526 27.2771583,21.4827349 26.1838726,20.3838188 C25.0905869,19.2849027 24.2277616,18.0099658 23.5953708,16.5589698 C22.9629801,15.1079738 22.6575078,13.5716481 22.6789447,11.9499467 C22.6360708,10.3282453 22.9361839,8.79191963 23.5792932,7.34092362 C24.2224024,5.88992762 25.095946,4.61499069 26.1999502,3.5160746 C27.3039544,2.41715851 28.5847944,1.55297532 30.0425087,0.923499112 C31.500223,0.294022904 33.0222254,0.000627376909 34.6085615,0.04330373 Z M34.6085615,1.89971581 C33.2580321,1.85703946 31.9718329,2.10775927 30.7499253,2.65188277 C29.5280178,3.19600627 28.450826,3.93216232 27.5183176,4.860373 C26.5858092,5.78858368 25.8462446,6.8714799 25.2996018,8.10909414 C24.7529589,9.34670838 24.5010783,10.6269798 24.5439522,11.9499467 C24.5010783,13.31559 24.7529589,14.6171993 25.2996018,15.8548135 C25.8462446,17.0924277 26.5858092,18.175324 27.5183176,19.1035346 C28.450826,20.0317453 29.5280178,20.7625669 30.7499253,21.2960213 C31.9718329,21.8294757 33.2580321,22.0748611 34.6085615,22.0321847 C35.9805278,22.0748611 37.2881637,21.8294757 38.5315082,21.2960213 C39.7748527,20.7625669 40.8627629,20.0317453 41.7952713,19.1035346 C42.7277797,18.175324 43.4566259,17.0924277 43.9818318,15.8548135 C44.5070376,14.6171993 44.7589183,13.31559 44.7374813,11.9499467 C44.7589183,10.6269798 44.5070376,9.34670838 43.9818318,8.10909414 C43.4566259,6.8714799 42.7277797,5.78858368 41.7952713,4.860373 C40.8627629,3.93216232 39.7748527,3.19600627 38.5315082,2.65188277 C37.2881637,2.10775927 35.9805278,1.85703946 34.6085615,1.89971581 Z M51.8759582,15.1186501 L60.1398706,15.1186501 L60.1398706,6.02863233 C60.1398706,5.40982521 60.021969,4.84970647 59.7861623,4.34825933 C59.5503555,3.84681218 59.2395241,3.41472058 58.8536585,3.05197158 C58.467793,2.68922258 58.0283416,2.40649598 57.5352912,2.2037833 C57.0422408,2.00107063 56.5384794,1.89971581 56.023992,1.89971581 C54.8020845,1.89971581 53.8052801,2.31580401 53.033549,3.1479929 C52.2618179,3.98018178 51.8759582,4.94038532 51.8759582,6.02863233 L51.8759582,15.1186501 Z M51.8759582,16.9750622 L51.8759582,23.4404973 L50.043106,23.4404973 L50.043106,16.9750622 L47.6314584,16.9750622 L48.756894,15.1186501 L50.043106,15.1186501 L50.043106,6.02863233 C50.043106,5.21778162 50.2038809,4.44961878 50.5254355,3.72412078 C50.8469902,2.99862278 51.2810824,2.36382155 51.8277252,1.81969805 C52.3743681,1.27557454 53.0067494,0.84348295 53.724888,0.523410302 C54.4430267,0.203337654 55.209387,0.04330373 56.023992,0.04330373 C56.8171601,0.0219655535 57.5781613,0.176665013 58.3070184,0.50740675 C59.0358756,0.838148486 59.6789751,1.28090901 60.2363365,1.8357016 C60.7936978,2.39049419 61.2331492,3.03062988 61.5547038,3.75612789 C61.8762585,4.48162589 62.026315,5.23911979 62.004878,6.02863233 L62.004878,23.4404973 L60.1398706,23.4404973 L60.1398706,16.9750622 L51.8759582,16.9750622 Z M65.3490294,18.1273179 C65.6062731,19.2795795 66.1797035,20.2024418 67.069338,20.8959325 C67.9589724,21.5894232 68.9825726,21.9361634 70.1401692,21.9361634 C71.5335726,21.9361634 72.7018702,21.4560616 73.6450971,20.4958437 C74.5883239,19.5142876 75.0599303,18.3620433 75.0599303,17.0390764 C75.0599303,15.8228003 74.7276622,14.7985832 74.063116,13.9663943 C73.3985698,13.1342054 72.519667,12.5900901 71.4263813,12.334032 L68.7896466,11.6618828 C67.4605542,11.2991338 66.4101582,10.6056534 65.6384271,9.58142096 C64.845259,8.53585031 64.4486809,7.35159927 64.4486809,6.02863233 C64.4486809,4.40693091 65.0167522,3.03063917 66.1529119,1.89971581 C67.3319455,0.768792451 68.7146096,0.203339254 70.3009457,0.203339254 C71.3513575,0.203339254 72.3320844,0.459393532 73.2431558,0.971509769 C74.1542272,1.48362601 74.8669959,2.18777527 75.3814833,3.08397869 L73.7737183,4.01218472 C73.0448611,2.71055595 71.8872819,2.05975133 70.3009457,2.05975133 C69.20766,2.05975133 68.2644473,2.45450168 67.4712792,3.24401421 C66.6995482,4.05486492 66.3136884,4.98306168 66.3136884,6.02863233 C66.3136884,6.94617392 66.5977241,7.76234693 67.1658039,8.47717584 C67.7338837,9.19200476 68.4359341,9.65610314 69.2719761,9.8694849 L71.9087108,10.5416341 C73.387862,10.9257213 74.5883146,11.7258909 75.5101045,12.942167 C76.4533314,14.1371048 76.9249378,15.5027277 76.9249378,17.0390764 C76.9249378,18.9381741 76.2496832,20.5385133 74.8991538,21.8401421 C73.5914984,23.1417709 72.005186,23.7925755 70.1401692,23.7925755 C68.5752701,23.7925755 67.1818876,23.3124737 65.9599801,22.3522558 C64.7595095,21.3493615 63.9663533,20.1010969 63.5804878,18.6074245 L65.3490294,18.1273179 Z M84.3528123,2.37982238 L84.3528123,23.4404973 L82.4878049,23.4404973 L82.4878049,2.37982238 L77.9217521,2.37982238 L77.9217521,0.523410302 L88.9188651,0.523410302 L88.9188651,2.37982238 L84.3528123,2.37982238 Z M98.6297661,23.4404973 L90.4623196,23.4404973 L90.4623196,0.523410302 L92.2951717,0.523410302 L92.2951717,21.5840853 L98.6297661,21.5840853 L98.6297661,23.4404973 Z M100.687705,23.4404973 L100.687705,0.523410302 L102.520557,0.523410302 L102.520557,23.4404973 L100.687705,23.4404973 Z M106.411349,7.14888099 L106.411349,23.4404973 L104.578497,23.4404973 L104.578497,0.10731794 L114.096466,16.8790409 L114.096466,0.523410302 L115.961473,0.523410302 L115.961473,23.8885968 L106.411349,7.14888099 Z M122.167446,21.5840853 L130.881533,21.5840853 L130.881533,23.4404973 L120.302439,23.4404973 L120.302439,9.64543517 L117.504928,9.64543517 L118.630363,7.8210302 L120.302439,7.8210302 L120.302439,0.523410302 L130.881533,0.523410302 L130.881533,2.37982238 L122.167446,2.37982238 L122.167446,7.8210302 L127.698158,7.8210302 L127.698158,9.64543517 L122.167446,9.64543517 L122.167446,21.5840853 Z" id="COASTLINE"></path>
            </g>
            <g id="Waves">
                <path d="M22.0408517,0 C7.42296666,1.50245115 1.57416328,12.9797282 0.383320071,19.4866785 C-1.22123891,29.4127407 2.35559384,37.643556 8.42214536,42.7388988 C19.6394181,52.0097661 34.6333405,50.8641282 44.4549881,39.0674956 C49.976999,31.8942327 51.1291991,21.7810231 46.8193484,17.2273535 C42.6816232,13.2395506 38.4818572,12.0830586 34.2409512,12.8028419 C28.3332658,14.1750995 25.8313942,21.3412078 31.0254211,24.5701599 C34.9688905,26.765 38.2125092,24.2785187 37.6456302,18.8277087 C41.6186068,26.203746 36.4490747,34.6433606 27.809891,36.8081705 C21.7993086,38.9046359 10.8040871,35.5041634 7.85469887,25.5115453 C3.62582281,8.55013321 22.0408517,0 22.0408517,0 Z" id="Outer" fill="#FFFFFF"></path>
                <g id="Inner" transform="translate(9.163107, 0.922792)" fill="#279CD7">
                    <path d="M0.488496566,17.151808 C-1.23227546,24.694847 1.47358367,30.2793337 10.5133846,33.0612218 C19.0593179,34.6205326 24.4997111,32.2360975 26.6856096,25.7184154 C24.3192631,27.2163479 21.5195767,26.6643195 18.4576354,24.8711685 C10.8445842,29.3769216 1.92943235,24.9069412 0.488496566,17.151808 Z" id="Lower"></path>
                    <path d="M22.9972074,10.1855557 C21.7654702,8.20036213 20.6806071,6.94314188 19.7816773,6.60829108 C20.1046489,10.6388328 18.5718813,12.593808 15.2421053,12.5390193 C10.8804279,12.2001206 9.63705804,7.12454685 11.742852,3.59585769 C13.6900446,0.407102801 17.6581979,-0.664005547 23.6592283,0.395147206 C29.621956,1.91077776 33.6035389,6.48223957 36.805072,12.2566037 C32.3527922,8.97342785 27.7567594,8.16929641 22.9972074,10.1855557 Z" id="Upper"></path>
                </g>
            </g>
        </g>
    </g>
</svg>