<?xml version="1.0" encoding="UTF-8"?>
<svg width="314px" height="89px" viewBox="0 0 314 89" version="1.1" xmlns="http://www.w3.org/2000/svg" xmlns:xlink="http://www.w3.org/1999/xlink">
    <title>Coastline Productions</title>
    <desc>Created with Sketch.</desc>
    <g id="Logo" stroke="none" stroke-width="1" fill="none" fill-rule="evenodd">
        <g>
            <g id="Arrows" transform="translate(296.913779, 69.688920)" fill="#22519D">
                <path d="M15.3338556,4.45174603 C15.5270801,4.6000089 15.6401872,4.82981636 15.6401872,5.07348798 C15.6401872,5.3171596 15.5270801,5.54696706 15.3338556,5.69522993 C14.0048482,6.71903242 11.3436914,8.76729985 9.76176406,9.98420684 C9.52455351,10.1668541 9.20565455,10.1983994 8.93702539,10.0655622 C8.66839622,9.93272493 8.49873569,9.65854901 8.49873569,9.35833246 C8.49873569,7.10991015 8.49873569,3.0370185 8.49873569,0.788627732 C8.49873569,0.488474268 8.66839622,0.214187945 8.93702539,0.0813822609 C9.20565455,-0.0514234229 9.52455351,-0.0198781298 9.76176406,0.162769117 C11.3436914,1.3796288 14.0048482,3.42794354 15.3338556,4.45174603 Z" id="Right"></path>
                <path d="M6.83511996,4.45174603 C7.02834445,4.6000089 7.14145147,4.82981636 7.14145147,5.07348798 C7.14145147,5.3171596 7.02834445,5.54696706 6.83511996,5.69522993 C5.50611249,6.71903242 2.8449557,8.76729985 1.2645993,9.98420684 C1.02581782,10.1668541 0.706918865,10.1983994 0.438289696,10.0655622 C0.169660528,9.93272493 0,9.65854901 0,9.35833246 C0,7.10991015 0,3.0370185 0,0.788627732 C0,0.488474268 0.169660528,0.214187945 0.438289696,0.0813822609 C0.706918865,-0.0514234229 1.02581782,-0.0198781298 1.2645993,0.162769117 C2.8449557,1.3796288 5.50611249,3.42794354 6.83511996,4.45174603 Z" id="Left"></path>
            </g>
            <polygon id="Rule" fill="#22519D" fill-rule="nonzero" points="95.8351063 75.8046812 95.8351063 74.6046812 171.239314 74.6046812 171.239314 75.8046812"></polygon>
            <g id="Name" transform="translate(96.378177, 16.038291)" fill="#000000" fill-rule="nonzero">
                <path d="M84.752835,64.6895774 C82.8595936,64.6895774 81.2662956,63.9744075 79.9728931,62.5440463 L79.9728931,72.3965507 L78.3702067,72.3965507 L78.3702067,52.1551593 L80.1415969,53.8207689 C81.3975095,52.503331 82.9345735,51.8446219 84.752835,51.8446219 C86.5336066,51.8446219 88.0425535,52.4751006 89.2797211,53.7360769 C90.5168887,54.9782326 91.1354633,56.4838534 91.1354633,58.2529843 C91.1354633,60.0221152 90.5168887,61.5371461 89.2797211,62.7981224 C88.0425535,64.0590987 86.5336066,64.6895774 84.752835,64.6895774 Z M84.752835,63.0521984 C86.1024724,63.0521984 87.2271533,62.5911021 88.1269116,61.6688955 C89.0454148,60.746689 89.5046596,59.6080633 89.5046596,58.2529843 C89.5046596,56.9167258 89.0454148,55.7875103 88.1269116,54.8653037 C87.2271533,53.9430972 86.1024724,53.4820008 84.752835,53.4820008 C83.4219426,53.4820008 82.2878893,53.9525073 81.3506411,54.8935344 C80.4321378,55.8157409 79.9728931,56.9355464 79.9728931,58.2529843 C79.9728931,59.6080633 80.4321378,60.746689 81.3506411,61.6688955 C82.2691443,62.5911021 83.4031976,63.0521984 84.752835,63.0521984 Z M98.8086758,52.1269286 L98.0776259,53.5949235 C97.8526863,53.5196413 97.5621437,53.4820008 97.2059894,53.4820008 C96.7561103,53.4820008 96.3390411,53.566692 95.9547694,53.7360769 C95.5704976,53.9054617 95.2424656,54.1313049 94.9706637,54.413613 C94.6988617,54.6959211 94.4832978,55.0252756 94.3239657,55.4016865 C94.1646335,55.7780973 94.0849686,56.1733228 94.0849686,56.5873747 L94.0849686,64.3225786 L92.4822822,64.3225786 L92.4822822,52.1551593 L93.8319128,53.2561555 C94.7316711,52.3151284 95.856352,51.8446219 97.2059894,51.8446219 C97.8245732,51.8446219 98.3587967,51.9387232 98.8086758,52.1269286 Z M106.088246,51.8446219 C107.869018,51.8446219 109.377965,52.4751006 110.615132,53.7360769 C111.871045,54.9782326 112.498992,56.4838534 112.498992,58.2529843 C112.498992,60.0221152 111.871045,61.5371461 110.615132,62.7981224 C109.377965,64.0590987 107.869018,64.6895774 106.088246,64.6895774 C104.344964,64.6895774 102.84539,64.0590987 101.589477,62.7981224 C100.333565,61.5371461 99.7056179,60.0221152 99.7056179,58.2529843 C99.7056179,56.4838534 100.333565,54.9782326 101.589477,53.7360769 C102.84539,52.4751006 104.344964,51.8446219 106.088246,51.8446219 Z M106.088246,53.4820008 C104.757354,53.4820008 103.632673,53.9430972 102.71417,54.8653037 C101.795666,55.7875103 101.336422,56.9167258 101.336422,58.2529843 C101.336422,59.6080633 101.795666,60.746689 102.71417,61.6688955 C103.632673,62.5911021 104.757354,63.0521984 106.088246,63.0521984 C107.419139,63.0521984 108.54382,62.5911021 109.462323,61.6688955 C110.399571,60.7278684 110.868188,59.5892428 110.868188,58.2529843 C110.868188,56.9543669 110.399571,55.8345615 109.462323,54.8935344 C108.525075,53.9525073 107.400394,53.4820008 106.088246,53.4820008 Z M119.756068,51.8446219 C121.649309,51.8446219 123.242608,52.5597917 124.53601,53.9901529 L124.53601,44.1094179 L126.166814,44.1094179 L126.166814,64.3225786 L124.367306,62.6851997 C123.092649,64.0214582 121.555585,64.6895774 119.756068,64.6895774 C118.012787,64.6895774 116.513212,64.0590987 115.257299,62.7981224 C114.001387,61.5371461 113.37344,60.0221152 113.37344,58.2529843 C113.37344,56.4838534 114.001387,54.9782326 115.257299,53.7360769 C116.513212,52.4751006 118.012787,51.8446219 119.756068,51.8446219 Z M119.756068,53.4820008 C118.425176,53.4820008 117.300495,53.9430972 116.381992,54.8653037 C115.463488,55.7875103 115.004244,56.9167258 115.004244,58.2529843 C115.004244,59.6080633 115.463488,60.746689 116.381992,61.6688955 C117.300495,62.5911021 118.425176,63.0521984 119.756068,63.0521984 C121.086961,63.0521984 122.211642,62.5911021 123.130145,61.6688955 C124.067393,60.7278684 124.53601,59.5892428 124.53601,58.2529843 C124.53601,56.9543669 124.067393,55.8345615 123.130145,54.8935344 C122.192897,53.9525073 121.068216,53.4820008 119.756068,53.4820008 Z M137.579628,52.1551593 L137.579628,64.3225786 L136.173763,63.1933518 C135.255259,64.17202 134.111834,64.6613467 132.743451,64.6613467 C131.375069,64.6613467 130.231643,64.2002503 129.31314,63.2780438 C128.394637,62.3558373 127.935392,61.1983913 127.935392,59.8056712 L127.935392,52.1551593 L129.538079,52.1551593 L129.538079,59.8056712 C129.538079,60.6902367 129.856738,61.4524572 130.494067,62.0923556 C131.131396,62.7134335 131.881183,63.0239678 132.743451,63.0239678 C133.699445,63.0239678 134.467977,62.7040234 135.04907,62.0641249 C135.648909,61.405406 135.948824,60.6525956 135.948824,59.8056712 L135.948824,52.1551593 L137.579628,52.1551593 Z M150.204298,54.1595369 L148.939019,55.1758411 C147.945536,54.0466086 146.727132,53.4820008 145.283769,53.4820008 C143.952877,53.4820008 142.828196,53.9430972 141.909693,54.8653037 C140.99119,55.7875103 140.531945,56.9167258 140.531945,58.2529843 C140.531945,59.6080633 140.99119,60.746689 141.909693,61.6688955 C142.828196,62.5911021 143.952877,63.0521984 145.283769,63.0521984 C146.708387,63.0521984 147.889302,62.515821 148.82655,61.4430502 L150.148063,62.4593543 C149.529479,63.1745349 148.807809,63.7250275 147.983031,64.1108486 C147.158252,64.4966697 146.258508,64.6895774 145.283769,64.6895774 C143.540488,64.6895774 142.040913,64.0590987 140.785001,62.7981224 C139.529088,61.5371461 138.901141,60.0221152 138.901141,58.2529843 C138.901141,56.4838534 139.529088,54.9782326 140.785001,53.7360769 C142.040913,52.4751006 143.540488,51.8446219 145.283769,51.8446219 C146.295998,51.8446219 147.214487,52.0422346 148.039265,52.437466 C148.864044,52.8326974 149.585714,53.4067153 150.204298,54.1595369 Z M153.29439,53.7925382 L151.10124,53.7925382 L151.10124,52.1551593 L153.29439,52.1551593 L153.29439,48.739248 L154.925193,47.9487892 L154.925193,52.1551593 L157.062109,52.1551593 L157.062109,53.7925382 L154.925193,53.7925382 L154.925193,64.3225786 L153.29439,64.3225786 L153.29439,53.7925382 Z M158.411739,52.1551593 L160.014426,52.1551593 L160.014426,64.3225786 L158.411739,64.3225786 L158.411739,52.1551593 Z M158.411739,47.4124065 L160.014426,47.4124065 L160.014426,49.1909388 L158.411739,49.1909388 L158.411739,47.4124065 Z M167.743873,51.8446219 C169.524644,51.8446219 171.033591,52.4751006 172.270759,53.7360769 C173.526672,54.9782326 174.154618,56.4838534 174.154618,58.2529843 C174.154618,60.0221152 173.526672,61.5371461 172.270759,62.7981224 C171.033591,64.0590987 169.524644,64.6895774 167.743873,64.6895774 C166.000591,64.6895774 164.501017,64.0590987 163.245104,62.7981224 C161.989191,61.5371461 161.361245,60.0221152 161.361245,58.2529843 C161.361245,56.4838534 161.989191,54.9782326 163.245104,53.7360769 C164.501017,52.4751006 166.000591,51.8446219 167.743873,51.8446219 Z M167.743873,53.4820008 C166.41298,53.4820008 165.288299,53.9430972 164.369796,54.8653037 C163.451293,55.7875103 162.992048,56.9167258 162.992048,58.2529843 C162.992048,59.6080633 163.451293,60.746689 164.369796,61.6688955 C165.288299,62.5911021 166.41298,63.0521984 167.743873,63.0521984 C169.074765,63.0521984 170.199446,62.5911021 171.117949,61.6688955 C172.055198,60.7278684 172.523815,59.5892428 172.523815,58.2529843 C172.523815,56.9543669 172.055198,55.8345615 171.117949,54.8935344 C170.180701,53.9525073 169.05602,53.4820008 167.743873,53.4820008 Z M175.478943,64.3225786 L175.478943,52.1551593 L176.856691,53.2843861 C177.775195,52.3245385 178.91862,51.8446219 180.287003,51.8446219 C181.63664,51.8446219 182.780066,52.3151284 183.717314,53.2561555 C184.654562,54.1971825 185.123179,55.3358082 185.123179,56.6720667 L185.123179,64.3225786 L183.492375,64.3225786 L183.492375,56.6720667 C183.492375,56.2203737 183.408024,55.7969179 183.23932,55.4016865 C183.070615,55.0064551 182.845679,54.6676904 182.564504,54.3853823 C182.28333,54.1030742 181.945926,53.8819361 181.552281,53.7219615 C181.158637,53.5619869 180.736882,53.4820008 180.287003,53.4820008 C179.405989,53.4820008 178.64683,53.7925351 178.009501,54.413613 C177.390917,55.0346909 177.08163,55.7875012 177.08163,56.6720667 L177.08163,64.3225786 L175.478943,64.3225786 Z M187.850558,61.7253569 C188.244202,62.5346402 188.900266,62.9392757 189.818769,62.9392757 C190.418608,62.9392757 190.929401,62.7275478 191.351162,62.3040856 C191.772924,61.8806235 191.983802,61.3677714 191.983802,60.7655141 C191.983802,60.2573594 191.83853,59.8103783 191.547983,59.4245572 C191.257436,59.0387361 190.896601,58.7893676 190.465467,58.6764444 L189.031485,58.2529843 C188.337921,58.0459583 187.770894,57.660143 187.330388,57.0955268 C186.889881,56.5309105 186.669631,55.8910217 186.669631,55.1758411 C186.669631,54.2724551 186.978918,53.5102346 187.597502,52.8891567 C188.234831,52.2680789 188.99399,51.9575446 189.875004,51.9575446 C190.512332,51.9575446 191.098104,52.136337 191.632335,52.4939273 C192.166567,52.8515176 192.555519,53.3314342 192.799203,53.9336916 L191.308986,54.5547663 C191.084047,53.9148679 190.606057,53.5949235 189.875004,53.5949235 C189.425125,53.5949235 189.050231,53.7548957 188.750311,54.0748449 C188.450392,54.3947941 188.300435,54.7617892 188.300435,55.1758411 C188.300435,55.9663039 188.684701,56.4650407 189.453244,56.6720667 L190.887227,57.0955268 C191.69326,57.3213733 192.349324,57.7636494 192.855438,58.4223683 C193.361552,59.0810873 193.614605,59.862128 193.614605,60.7655141 C193.614605,61.3113098 193.516196,61.8147517 193.319374,62.275855 C193.122551,62.7369582 192.85544,63.1368888 192.51803,63.4756585 C192.180621,63.8144283 191.77761,64.0779119 191.308986,64.2661173 C190.840362,64.4543227 190.343628,64.548424 189.818769,64.548424 C189.10646,64.548424 188.455083,64.3649265 187.864616,63.9979259 C187.27415,63.6309254 186.800847,63.1368936 186.444692,62.5158157 L187.850558,61.7253569 Z" id="productions"></path>
                <path d="M36.0151598,31.8197371 C34.1991547,34.3223429 31.893575,36.3154597 29.0983514,37.7991474 C26.3031279,39.2828351 23.2319889,40.0246679 19.8848422,40.0246679 C17.1786385,40.0961709 14.6238069,39.5956572 12.2202708,38.5231119 C9.81673462,37.4505666 7.70699564,35.9937144 5.89099054,34.1525115 C4.07498544,32.3113087 2.64178723,30.175188 1.59135291,27.7440853 C0.540918591,25.3129825 0.0335130126,22.7389123 0.0691209557,20.0217975 C-0.00209493049,17.3046827 0.496408795,14.7306125 1.56464709,12.2995098 C2.63288538,9.86840703 4.0838873,7.73228629 5.91769637,5.89108348 C7.75150544,4.04988067 9.87904812,2.6019662 12.3003883,1.54729663 C14.7217284,0.492627053 17.2498544,0.00105115226 19.8848422,0.0725541741 C23.2319889,0.0725541741 26.294226,0.79651141 29.0716456,2.2444476 C31.8490652,3.69238379 34.145743,5.70337612 35.9617481,8.2774849 L33.5048123,10.0471758 C32.0448867,7.97358821 30.1042829,6.31116789 27.6829428,5.05986501 C25.2616026,3.80856213 22.6622618,3.18292007 19.8848422,3.18292007 C17.6415418,3.11141705 15.5050973,3.531491 13.4754445,4.44315453 C11.4457917,5.35481806 9.65651944,6.58822668 8.10757392,8.14341741 C6.55862839,9.69860813 5.33017278,11.5129701 4.42217023,13.5865577 C3.51416768,15.6601454 3.09578063,17.8052038 3.16699652,20.0217975 C3.09578063,22.3098942 3.51416768,24.4907037 4.42217023,26.5642913 C5.33017278,28.6378789 6.55862839,30.4522409 8.10757392,32.0074316 C9.65651944,33.5626223 11.4457917,34.7870932 13.4754445,35.680881 C15.5050973,36.5746688 17.6415418,36.985805 19.8848422,36.914302 C22.6622618,36.914302 25.2437989,36.2975976 27.6295311,35.0641705 C30.0152633,33.8307434 31.9736708,32.1415098 33.5048123,29.9964192 L36.0151598,31.8197371 Z M57.4866421,0.0725541741 C60.1928458,0.0368026632 62.7565792,0.546254052 65.1779194,1.60092362 C67.5992595,2.6555932 69.7268022,4.09456992 71.5606112,5.91789698 C73.3944203,7.74122404 74.8365204,9.86840703 75.8869547,12.2995098 C76.937389,14.7306125 77.4447946,17.3046827 77.4091867,20.0217975 C77.4447946,22.7389123 76.937389,25.3129825 75.8869547,27.7440853 C74.8365204,30.175188 73.3944203,32.3113087 71.5606112,34.1525115 C69.7268022,35.9937144 67.5992595,37.4505666 65.1779194,38.5231119 C62.7565792,39.5956572 60.1928458,40.0961709 57.4866421,40.0246679 C54.7804384,40.0961709 52.2256068,39.5956572 49.8220707,38.5231119 C47.4185345,37.4505666 45.3087955,35.9937144 43.4927904,34.1525115 C41.6767853,32.3113087 40.2435871,30.175188 39.1931528,27.7440853 C38.1427185,25.3129825 37.6353129,22.7389123 37.6709209,20.0217975 C37.599705,17.3046827 38.0982087,14.7306125 39.166447,12.2995098 C40.2346853,9.86840703 41.6856872,7.73228629 43.5194963,5.89108348 C45.3533053,4.04988067 47.480848,2.6019662 49.9021882,1.54729663 C52.3235283,0.492627053 54.8516543,0.00105115226 57.4866421,0.0725541741 Z M57.4866421,3.18292007 C55.2433417,3.11141705 53.1068972,3.531491 51.0772444,4.44315453 C49.0475916,5.35481806 47.2583193,6.58822668 45.7093738,8.14341741 C44.1604283,9.69860813 42.9319727,11.5129701 42.0239701,13.5865577 C41.1159676,15.6601454 40.6975805,17.8052038 40.7687964,20.0217975 C40.6975805,22.3098942 41.1159676,24.4907037 42.0239701,26.5642913 C42.9319727,28.6378789 44.1604283,30.4522409 45.7093738,32.0074316 C47.2583193,33.5626223 49.0475916,34.7870932 51.0772444,35.680881 C53.1068972,36.5746688 55.2433417,36.985805 57.4866421,36.914302 C59.7655505,36.985805 61.9376024,36.5746688 64.0028631,35.680881 C66.0681238,34.7870932 67.8751998,33.5626223 69.4241453,32.0074316 C70.9730909,30.4522409 72.1837428,28.6378789 73.0561374,26.5642913 C73.928532,24.4907037 74.346919,22.3098942 74.3113111,20.0217975 C74.346919,17.8052038 73.928532,15.6601454 73.0561374,13.5865577 C72.1837428,11.5129701 70.9730909,9.69860813 69.4241453,8.14341741 C67.8751998,6.58822668 66.0681238,5.35481806 64.0028631,4.44315453 C61.9376024,3.531491 59.7655505,3.11141705 57.4866421,3.18292007 Z M86.1686969,25.3308703 L99.8954903,25.3308703 L99.8954903,10.1008028 C99.8954903,9.06400903 99.6996495,8.12554594 99.3079622,7.28538544 C98.9162748,6.44522493 98.3999674,5.72126769 97.7590244,5.11349201 C97.1180814,4.50571632 96.3881295,4.03201591 95.5691468,3.69237655 C94.7501641,3.3527372 93.91339,3.18292007 93.0587994,3.18292007 C91.0291466,3.18292007 89.3734021,3.88006408 88.0915162,5.274373 C86.8096302,6.66868193 86.1686969,8.27747579 86.1686969,10.1008028 L86.1686969,25.3308703 Z M86.1686969,28.4412362 L86.1686969,39.2738899 L83.124233,39.2738899 L83.124233,28.4412362 L79.1183594,28.4412362 L80.987767,25.3308703 L83.124233,25.3308703 L83.124233,10.1008028 C83.124233,8.74224543 83.3912885,7.45521034 83.9254077,6.23965897 C84.4595268,5.0241076 85.1805768,3.9605161 86.0885794,3.04885258 C86.9965819,2.13718905 88.0470005,1.41323181 89.2398666,0.876959147 C90.4327327,0.340686484 91.7056976,0.0725541741 93.0587994,0.0725541741 C94.3762933,0.0368026632 95.6403563,0.295997229 96.8510264,0.850145648 C98.0616964,1.40429407 99.1299187,2.14612679 100.055725,3.07566607 C100.981532,4.00520536 101.711484,5.0777346 102.245603,6.29328597 C102.779722,7.50883734 103.028974,8.77799694 102.993366,10.1008028 L102.993366,39.2738899 L99.8954903,39.2738899 L99.8954903,28.4412362 L86.1686969,28.4412362 Z M108.548177,30.3718082 C108.975473,32.3023898 109.927971,33.8486194 111.4057,35.0105435 C112.88343,36.1724676 114.583684,36.753421 116.506513,36.753421 C118.821029,36.753421 120.761633,35.949024 122.328382,34.340206 C123.895132,32.6956365 124.678495,30.7650839 124.678495,28.5484902 C124.678495,26.5106541 124.12658,24.7946073 123.022734,23.4002984 C121.918887,22.0059895 120.458984,21.0943396 118.642979,20.6653215 L114.263223,19.5391545 C112.055531,18.9313788 110.310768,17.7694722 109.028882,16.0533996 C107.711388,14.3015756 107.052651,12.3173965 107.052651,10.1008028 C107.052651,7.38368801 107.996247,5.07775015 109.883468,3.18292007 C111.841905,1.28808999 114.138583,0.340689165 116.773571,0.340689165 C118.51836,0.340689165 120.147399,0.769700861 121.660737,1.62773712 C123.174074,2.48577338 124.358021,3.66555555 125.212611,5.16711901 L122.542029,6.72230195 C121.331359,4.54145979 119.408559,3.45105506 116.773571,3.45105506 C114.957566,3.45105506 113.39084,4.11244809 112.073346,5.435254 C110.79146,6.79381141 110.150527,8.34897881 110.150527,10.1008028 C110.150527,11.6381178 110.622325,13.0055926 111.565935,14.2032682 C112.509546,15.4009438 113.675688,16.1785275 115.064398,16.5360426 L119.444153,17.6622096 C121.901101,18.3057368 123.895116,19.6463983 125.426258,21.6842345 C126.993007,23.6863191 127.77637,25.9743814 127.77637,28.5484902 C127.77637,31.7303747 126.654737,34.4116978 124.411437,36.59254 C122.239352,38.7733821 119.604404,39.8637869 116.506513,39.8637869 C113.907133,39.8637869 111.592651,39.0593899 109.562999,37.4505719 C107.568954,35.7702509 106.25148,33.6788189 105.610537,31.1762131 L108.548177,30.3718082 Z M140.114461,3.98732504 L140.114461,39.2738899 L137.016585,39.2738899 L137.016585,3.98732504 L129.432131,3.98732504 L129.432131,0.876959147 L147.698915,0.876959147 L147.698915,3.98732504 L140.114461,3.98732504 Z M163.829232,39.2738899 L150.262674,39.2738899 L150.262674,0.876959147 L153.307138,0.876959147 L153.307138,36.163524 L163.829232,36.163524 L163.829232,39.2738899 Z M167.247578,39.2738899 L167.247578,0.876959147 L170.292042,0.876959147 L170.292042,39.2738899 L167.247578,39.2738899 Z M176.754851,11.9777478 L176.754851,39.2738899 L173.710387,39.2738899 L173.710387,0.179808171 L189.520235,28.2803552 L189.520235,0.876959147 L192.618111,0.876959147 L192.618111,40.0246679 L176.754851,11.9777478 Z M202.926558,36.163524 L217.401115,36.163524 L217.401115,39.2738899 L199.828683,39.2738899 L199.828683,16.1606536 L195.18187,16.1606536 L197.051277,13.1039147 L199.828683,13.1039147 L199.828683,0.876959147 L217.401115,0.876959147 L217.401115,3.98732504 L202.926558,3.98732504 L202.926558,13.1039147 L212.113362,13.1039147 L212.113362,16.1606536 L202.926558,16.1606536 L202.926558,36.163524 Z" id="COASTLINE"></path>
            </g>
            <g id="Waves">
                <path d="M36.6110147,0 C12.3299383,2.51731439 2.61476805,21.7471673 0.636714813,32.6493783 C-2.02854211,49.2802146 3.91276535,63.0707126 13.9896267,71.6078153 C32.6221072,87.1408911 57.5278013,85.2214073 73.8420749,65.4564831 C83.0144257,53.4378842 84.9282907,36.4934877 77.7694019,28.8639432 C70.8964225,22.1824924 63.9203901,20.2448227 56.8760222,21.4507993 C47.0630457,23.749978 42.9073054,35.7565897 51.5348574,41.1666075 C58.0851676,44.844 63.472989,40.6779709 62.5313731,31.5452931 C69.1306963,43.9036348 60.5438314,58.0439702 46.1936926,61.671048 C36.209799,65.1836163 17.9461573,59.486221 13.0470682,42.7438721 C6.02268252,14.3255062 36.6110147,0 36.6110147,0 Z" id="Outer" fill="#22519D"></path>
                <g id="Inner" transform="translate(15.220403, 1.546113)" fill="#279CD7">
                    <path d="M0.811418506,28.7373688 C-2.0468744,41.3755173 2.44770004,50.7321667 17.4632851,55.3931414 C31.6585301,58.0057226 40.6953096,54.010669 44.326202,43.0904771 C40.395576,45.6002207 35.7451495,44.6753127 30.6591039,41.670939 C18.0134251,49.2202008 3.20488869,41.730875 0.811418506,28.7373688 Z" id="Lower"></path>
                    <path d="M38.1995718,17.0656104 C36.1535915,13.7394747 34.3515768,11.6330377 32.8584071,11.0720047 C33.3948799,17.8250633 30.8488724,21.1005688 25.3179392,21.008772 C18.0729634,20.4409567 16.0076606,11.9369766 19.5054952,6.02475778 C22.7398846,0.682089222 29.3311961,-1.1125225 39.2992234,0.66205796 C49.203628,3.20145405 55.8172467,10.8608089 61.1351617,20.5355926 C53.7396907,15.0347244 46.1054382,13.6874249 38.1995718,17.0656104 Z" id="Upper"></path>
                </g>
            </g>
        </g>
    </g>
</svg>