<?xml version="1.0" encoding="UTF-8"?>
<svg width="60px" height="44px" viewBox="0 0 60 44" version="1.1" xmlns="http://www.w3.org/2000/svg" xmlns:xlink="http://www.w3.org/1999/xlink">
    <title>Quote</title>
    <desc>Created with Sketch.</desc>
    <g id="Quote" stroke="none" stroke-width="1" fill="none" fill-rule="evenodd" fill-opacity="0.2">
        <path d="M0.689453125,28.3642578 C0.689453125,23.8785583 2.24461335,19.1072844 5.35498047,14.050293 C8.46534758,8.99330154 14.0829672,4.37013813 22.2080078,0.180664062 L23.7314453,3.03710938 C19.668925,5.91472793 16.6643978,8.32681318 14.7177734,10.2734375 C11.2900219,13.7858249 9.57617188,17.150049 9.57617188,20.3662109 C9.57617188,21.4664769 9.89355151,22.1858707 10.5283203,22.5244141 C11.1630891,22.9052753 11.7132138,23.0957031 12.1787109,23.0957031 C13.7867919,22.8841135 14.844724,22.7783203 15.3525391,22.7783203 C18.0608859,22.7783203 20.2825434,23.7621972 22.0175781,25.7299805 C23.7526128,27.6977637 24.6201172,30.078111 24.6201172,32.8710938 C24.6201172,36.0026198 23.6679783,38.6157122 21.7636719,40.7104492 C19.8593655,42.8051863 17.2356938,43.8525391 13.8925781,43.8525391 C9.95701157,43.8525391 6.77263586,42.4454893 4.33935547,39.6313477 C1.90607507,36.817206 0.689453125,33.0615469 0.689453125,28.3642578 Z M35.7285156,28.3642578 C35.7285156,23.6246508 37.3788897,18.7370043 40.6796875,13.7011719 C43.9804853,8.6653394 49.502891,4.15854854 57.2470703,0.180664062 L58.7705078,3.03710938 C54.961895,5.70313833 52.0420023,8.05174766 50.0107422,10.0830078 C46.413719,13.680031 44.6152344,17.0230965 44.6152344,20.1123047 C44.6152344,21.000981 44.8479794,21.7203749 45.3134766,22.2705078 C45.7789737,22.8206408 46.413733,23.0957031 47.2177734,23.0957031 C48.8258544,22.8841135 49.8837865,22.7783203 50.3916016,22.7783203 C53.0576305,22.7783203 55.2687087,23.7516179 57.0249023,25.6982422 C58.781096,27.6448665 59.6591797,30.0357931 59.6591797,32.8710938 C59.6591797,36.1718915 58.6858821,38.8273011 56.7392578,40.8374023 C54.7926335,42.8475035 52.1478032,43.8525391 48.8046875,43.8525391 C44.9960747,43.8525391 41.8645956,42.4454893 39.4101562,39.6313477 C36.9557169,36.817206 35.7285156,33.0615469 35.7285156,28.3642578 Z" id="Accent" fill="#22529D" fill-rule="nonzero"></path>
    </g>
</svg>